<?xml version="1.0" encoding="UTF-8"?>
<svg version="1.1" xmlns="http://www.w3.org/2000/svg" width="16" height="16">
<path d="M0 0 C0.66 0 1.32 0 2 0 C3.6875 1.8125 3.6875 1.8125 5 4 C4.67 4.99 4.34 5.98 4 7 C3.67 6.34 3.34 5.68 3 5 C2.95101563 5.62648438 2.90203125 6.25296875 2.8515625 6.8984375 C2.77679687 7.71570313 2.70203125 8.53296875 2.625 9.375 C2.55539063 10.18710938 2.48578125 10.99921875 2.4140625 11.8359375 C2 14 2 14 0 16 C-2.625 15.625 -2.625 15.625 -5 15 C-4.67 13.68 -4.34 12.36 -4 11 C-2.68 11 -1.36 11 0 11 C0 7.37 0 3.74 0 0 Z " fill="#221E1F" transform="translate(7,0)"/>
</svg>
